<?xml version="1.0" standalone="no"?>
<!DOCTYPE svg PUBLIC "-//W3C//DTD SVG 20010904//EN"
 "http://www.w3.org/TR/2001/REC-SVG-20010904/DTD/svg10.dtd">
<svg version="1.0" xmlns="http://www.w3.org/2000/svg"
 width="291.000000pt" height="291.000000pt" viewBox="0 0 291.000000 291.000000"
 preserveAspectRatio="xMidYMid meet">
<g transform="translate(0.000000,291.000000) scale(0.100000,-0.100000)"
fill="#000000" stroke="none">
<path d="M0 2538 c0 -212 4 -367 9 -359 5 8 16 11 30 6 13 -4 21 -2 21 5 0 6
6 10 13 9 31 -4 57 2 71 17 14 13 17 13 22 1 6 -16 44 -12 44 5 0 5 6 8 12 6
7 -3 25 7 40 21 42 40 56 50 60 46 2 -3 11 11 18 30 13 34 40 52 60 40 5 -3
10 -1 10 5 0 6 5 8 12 4 8 -5 9 -2 5 10 -7 19 20 96 34 96 5 0 9 18 9 41 0 22
4 38 9 35 11 -7 9 13 -3 33 -6 9 -5 12 5 9 23 -8 47 83 44 163 -2 38 1 69 6
69 5 0 8 18 6 40 l-2 40 -267 0 -268 0 0 -372z"/>
<path d="M1421 2863 c0 -27 0 -64 -1 -83 -1 -19 0 -54 3 -77 3 -24 2 -45 -1
-47 -4 -2 -7 -43 -7 -90 0 -51 -4 -86 -10 -86 -5 0 -4 -4 4 -9 11 -7 10 -10
-4 -18 -12 -7 -14 -13 -6 -17 16 -10 14 -26 -4 -26 -11 0 -15 -12 -15 -45 0
-36 -4 -45 -17 -46 -12 0 -9 -3 7 -8 130 -40 240 -160 276 -301 21 -83 15
-213 -14 -288 -44 -113 -152 -213 -271 -249 -79 -24 -218 -22 -296 5 -39 13
-53 15 -41 6 11 -8 25 -14 32 -14 22 0 8 -34 -17 -40 -15 -4 -24 -13 -24 -25
0 -12 -8 -21 -20 -23 -22 -4 -104 -90 -105 -109 0 -7 -8 -13 -17 -13 -14 0
-15 2 -4 9 9 6 10 11 2 15 -10 6 -12 1 -10 -21 0 -4 -17 -13 -38 -20 -41 -14
-30 -12 87 12 241 51 518 39 742 -31 46 -14 85 -28 86 -29 5 -4 -99 -140 -107
-140 -3 0 -42 8 -86 18 -193 42 -474 39 -656 -7 -111 -28 -293 -97 -340 -129
-49 -33 -69 -80 -69 -159 l0 -68 558 0 557 0 19 -52 c10 -29 29 -67 42 -85 13
-17 24 -34 24 -37 0 -3 -310 -6 -690 -6 l-690 0 0 174 c0 96 5 187 10 202 6
15 8 29 6 31 -3 3 -10 -14 -17 -37 -7 -24 -15 -38 -17 -31 -2 7 -12 5 -30 -7
-15 -10 -55 -31 -89 -47 -34 -15 -60 -32 -57 -37 5 -7 -10 -12 -29 -9 -4 0 -7
-3 -7 -7 0 -4 -16 -14 -35 -21 l-35 -12 0 -365 0 -364 1455 0 1455 0 0 1455 0
1455 -744 0 -745 0 0 -47z m1189 -1263 l0 -90 -120 0 -119 0 -3 -382 c-3 -366
-4 -385 -24 -428 -27 -57 -83 -112 -143 -141 -67 -33 -196 -33 -266 -1 -114
52 -169 144 -169 282 0 102 21 158 84 219 90 87 226 105 360 47 13 -5 15 30
12 289 l-3 295 196 0 195 0 0 -90z"/>
<path d="M1318 2323 c7 -3 16 -2 19 1 4 3 -2 6 -13 5 -11 0 -14 -3 -6 -6z"/>
<path d="M1349 2106 c25 -14 36 -43 22 -61 -5 -5 -7 -24 -6 -42 2 -18 -3 -49
-11 -70 -7 -21 -13 -32 -14 -24 0 8 -3 12 -6 8 -11 -11 -12 -121 -2 -134 7 -9
7 -13 -1 -13 -6 0 -11 5 -11 11 0 28 -28 -14 -34 -51 -3 -22 -12 -40 -19 -40
-8 0 -7 -4 3 -10 13 -9 13 -10 0 -10 -13 0 -13 -1 0 -10 12 -7 8 -10 -15 -10
-23 0 -27 3 -15 10 13 8 12 10 -2 10 -10 0 -18 -4 -18 -9 0 -6 -15 -12 -32
-15 -18 -2 1 -3 42 -2 53 2 87 9 116 24 118 60 166 220 104 342 -20 40 -93
110 -113 110 -6 -1 -1 -7 12 -14z m52 -43 c13 -16 12 -17 -3 -4 -10 7 -18 15
-18 17 0 8 8 3 21 -13z"/>
<path d="M1097 1669 c7 -7 15 -10 18 -7 3 3 -2 9 -12 12 -14 6 -15 5 -6 -5z"/>
</g>
</svg>
